<?xml version="1.0" encoding="UTF-8"?>
<svg id="Layer_1" data-name="Layer 1" xmlns="http://www.w3.org/2000/svg" viewBox="0 0 1318.88 679.25">
  <path d="M1299.32,552.58l-66.32-114.94-17.88,31.37-120.91-66.11-53.59-31.39-.06-.03-.03.06-24.68,45.35-136.74-80.09c-4.17,6.43-8.68,14.56-12.55,24.35-5.33,13.47-7.72,25.69-8.82,35.11l179.19,104.94,24.73-45.31,122.74,67.02-16.9,29.65,131.83.03Z" fill="#8bba24"/>
  <path d="M179.44,270.29h-27.7c-1.24,0-2.3-.42-3.16-1.28-.87-.85-1.3-1.88-1.3-3.1v-124.76c0-1.21.43-2.25,1.3-3.1s1.91-1.28,3.14-1.28h57.53c7.15,0,13.75,1.19,19.79,3.56,6.04,2.37,11.19,5.69,15.45,9.94,4.26,4.26,7.59,9.3,9.99,15.14,2.4,5.84,3.61,12.28,3.61,19.33,0,3.89-.46,7.75-1.39,11.58s-2.25,7.45-3.98,10.85c-1.73,3.41-3.76,6.47-6.1,9.21-2.34,2.74-5,5.02-7.95,6.84-.99.73-1.64,1.61-1.94,2.64-.31,1.04-.09,2.04.65,3.01,4.69,6.08,9.62,12.34,14.8,18.79,5.18,6.45,9.8,12.34,13.88,17.69.74.97.93,2.04.55,3.19-.37,1.16-1.17,1.73-2.4,1.73h-34.41c-1.23,0-2.56-.33-3.98-1-1.42-.67-2.5-1.49-3.24-2.46-3.93-5.11-7.82-10.27-11.69-15.5-3.87-5.23-7.7-10.52-11.51-15.87-.74-.97-1.78-1.79-3.13-2.46-1.35-.67-2.64-1-3.86-1h-4.05c-1.23,0-2.27.43-3.13,1.28-.86.85-1.29,1.89-1.29,3.1v29.55c0,1.22-.44,2.25-1.3,3.1-.87.85-1.92,1.28-3.16,1.28ZM188.32,198.42h19.51c1.47,0,3.01-.27,4.6-.82,1.6-.55,3.07-1.4,4.42-2.55,1.35-1.15,2.45-2.58,3.32-4.29.86-1.7,1.29-3.71,1.29-6.02,0-1.21-.22-2.65-.64-4.29-.43-1.64-1.17-3.22-2.21-4.74-1.04-1.52-2.45-2.8-4.23-3.83-1.78-1.03-3.96-1.55-6.54-1.55h-19.51c-1.23,0-2.27.43-3.13,1.28-.86.85-1.29,1.89-1.29,3.1v19.33c0,1.22.43,2.25,1.29,3.1.86.85,1.9,1.28,3.13,1.28Z" fill="#fff"/>
  <path d="M274.36,203.53c0-9.49,1.85-18.42,5.55-26.81,3.7-8.39,8.69-15.71,14.98-21.98,6.29-6.26,13.69-11.22,22.2-14.87,8.51-3.65,17.58-5.47,27.2-5.47s18.68,1.82,27.19,5.47c8.51,3.65,15.94,8.6,22.29,14.87,6.35,6.26,11.38,13.59,15.08,21.98,3.7,8.39,5.55,17.33,5.55,26.81s-1.85,18.42-5.55,26.81c-3.7,8.39-8.73,15.72-15.08,21.98-6.35,6.26-13.78,11.22-22.29,14.86-8.51,3.65-17.58,5.47-27.19,5.47s-18.68-1.82-27.2-5.47c-8.51-3.65-15.91-8.6-22.2-14.86-6.29-6.26-11.28-13.59-14.98-21.98-3.7-8.39-5.55-17.33-5.55-26.81ZM310.99,203.53c0,4.62.86,9,2.59,13.13,1.73,4.14,4.1,7.78,7.12,10.94,3.02,3.16,6.57,5.69,10.64,7.57,4.07,1.89,8.39,2.83,12.95,2.83s8.88-.94,12.95-2.83c4.07-1.89,7.64-4.41,10.73-7.57,3.08-3.16,5.49-6.81,7.21-10.94,1.73-4.13,2.59-8.51,2.59-13.13s-.86-8.85-2.59-13.04c-1.73-4.19-4.13-7.84-7.21-10.94-3.08-3.1-6.66-5.59-10.73-7.48-4.07-1.88-8.39-2.83-12.95-2.83s-8.88.94-12.95,2.83c-4.07,1.89-7.62,4.38-10.64,7.48-3.02,3.1-5.4,6.75-7.12,10.94-1.73,4.19-2.59,8.54-2.59,13.04Z" fill="#fff"/>
  <path d="M433.45,141.33c0-1.21.43-2.25,1.29-3.1.86-.85,1.9-1.28,3.13-1.28h27.8c1.23,0,2.27.43,3.13,1.28.86.85,1.29,1.89,1.29,3.1v73.87c0,4.74.77,8.66,2.32,11.77,1.55,3.1,3.47,5.53,5.76,7.3,2.29,1.76,4.74,3.01,7.34,3.74,2.6.73,4.95,1.09,7.06,1.09s4.46-.37,7.06-1.09c2.6-.73,5.02-1.98,7.24-3.74,2.23-1.76,4.12-4.2,5.66-7.3,1.55-3.1,2.32-7.02,2.32-11.77v-73.87c0-1.21.43-2.25,1.29-3.1.86-.85,1.9-1.28,3.13-1.28h27.8c1.23,0,2.27.43,3.13,1.28.86.85,1.29,1.89,1.29,3.1v73.87c0,8.64-1.39,16.48-4.16,23.53-2.77,7.05-6.74,13.07-11.91,18.06-5.17,4.99-11.39,8.85-18.66,11.58-7.27,2.74-15.33,4.1-24.2,4.1s-16.93-1.37-24.2-4.1c-7.27-2.74-13.48-6.6-18.66-11.58-5.17-4.98-9.17-11-12.01-18.06-2.83-7.05-4.25-14.89-4.25-23.53v-73.87Z" fill="#fff"/>
  <path d="M668.03,170.33h-25.9c-1.23,0-2.28.43-3.15,1.28s-1.3,1.89-1.3,3.1v91.2c0,1.22-.4,2.25-1.2,3.1-.8.85-1.88,1.28-3.24,1.28h-27.75c-1.23,0-2.28-.42-3.15-1.28-.86-.85-1.29-1.88-1.29-3.1v-91.2c0-1.21-.4-2.25-1.2-3.1-.8-.85-1.88-1.28-3.24-1.28h-26.27c-1.23,0-2.28-.42-3.15-1.28-.86-.85-1.3-1.88-1.3-3.1v-24.81c0-1.21.43-2.25,1.3-3.1s1.91-1.28,3.15-1.28h97.68c1.36,0,2.43.43,3.24,1.28.8.85,1.2,1.89,1.2,3.1v24.81c0,1.22-.4,2.25-1.2,3.1-.8.85-1.88,1.28-3.24,1.28Z" fill="#fff"/>
  <path d="M723.16,174.71v7.66c0,1.22.43,2.25,1.29,3.1.86.85,1.91,1.28,3.15,1.28h50.13c1.23,0,2.28.43,3.14,1.28.86.85,1.3,1.89,1.3,3.1v25.17c0,1.22-.43,2.25-1.3,3.1-.86.85-1.91,1.28-3.14,1.28h-50.13c-1.23,0-2.28.43-3.15,1.28-.86.85-1.29,1.89-1.29,3.1v6.93c0,1.22.43,2.25,1.29,3.1.86.85,1.91,1.28,3.15,1.28h57.53c1.23,0,2.28.43,3.14,1.28.86.85,1.3,1.89,1.3,3.1v25.17c0,1.22-.43,2.25-1.3,3.1-.86.85-1.91,1.28-3.14,1.28h-94.16c-1.23,0-2.28-.42-3.15-1.28-.86-.85-1.3-1.88-1.3-3.1v-124.76c0-1.21.43-2.25,1.3-3.1.86-.85,1.91-1.28,3.15-1.28h94.16c1.23,0,2.28.43,3.14,1.28.86.85,1.3,1.89,1.3,3.1v24.81c0,1.22-.43,2.25-1.3,3.1-.86.85-1.91,1.28-3.14,1.28h-57.53c-1.23,0-2.28.43-3.15,1.28-.86.85-1.29,1.89-1.29,3.1Z" fill="#fff"/>
  <g>
    <path d="M344.85,548.32h-189.43c-2.23,0-4.13-.77-5.69-2.32-1.56-1.55-2.34-3.42-2.34-5.63v-37.1c0-2.21.55-4.64,1.67-7.29,1.11-2.65,2.34-4.86,3.68-6.63l102.41-113.62c1.34-1.76,1.78-3.64,1.34-5.63-.45-1.99-1.9-2.98-4.35-2.98h-96.72c-2.23,0-4.13-.78-5.69-2.33-1.56-1.56-2.34-3.45-2.34-5.67v-45.71c0-2.22.78-4.11,2.34-5.67,1.56-1.56,3.46-2.34,5.69-2.34h189.43c2.45,0,4.4.78,5.86,2.32,1.45,1.55,2.18,3.43,2.18,5.64v37.5c0,2.21-.5,4.65-1.51,7.3-1.01,2.65-2.18,4.87-3.52,6.64l-102.41,114.16c-1.34,1.77-1.79,3.6-1.34,5.48.45,1.88,1.78,2.82,4.02,2.82h96.72c2.45,0,4.4.78,5.86,2.32,1.45,1.55,2.18,3.43,2.18,5.64v45.13c0,2.21-.73,4.1-2.18,5.64-1.46,1.55-3.4,2.32-5.86,2.32Z" fill="#8bba24"/>
    <path d="M455.62,374.43v13.94c0,2.21.78,4.1,2.34,5.64,1.56,1.55,3.46,2.32,5.69,2.32h90.7c2.23,0,4.13.78,5.69,2.32,1.56,1.55,2.34,3.43,2.34,5.64v45.79c0,2.21-.78,4.1-2.34,5.64-1.56,1.55-3.46,2.32-5.69,2.32h-90.7c-2.23,0-4.13.78-5.69,2.32-1.56,1.55-2.34,3.43-2.34,5.64v12.61c0,2.21.78,4.1,2.34,5.64,1.56,1.55,3.46,2.32,5.69,2.32h104.08c2.23,0,4.13.78,5.69,2.32,1.56,1.55,2.34,3.43,2.34,5.64v45.79c0,2.21-.78,4.1-2.34,5.64-1.56,1.55-3.46,2.32-5.69,2.32h-170.35c-2.23,0-4.13-.77-5.69-2.32-1.56-1.54-2.34-3.43-2.34-5.64v-226.98c0-2.21.78-4.09,2.34-5.64,1.56-1.55,3.46-2.32,5.69-2.32h170.35c2.23,0,4.13.78,5.69,2.32,1.56,1.55,2.34,3.43,2.34,5.64v45.13c0,2.21-.78,4.1-2.34,5.64-1.56,1.55-3.46,2.32-5.69,2.32h-104.08c-2.23,0-4.13.78-5.69,2.32-1.56,1.55-2.34,3.43-2.34,5.64Z" fill="#8bba24"/>
    <path d="M676.8,548.32h-50.12c-2.24,0-4.15-.77-5.72-2.32-1.57-1.54-2.35-3.43-2.35-5.64v-226.98c0-2.21.78-4.09,2.34-5.64,1.56-1.55,3.46-2.32,5.69-2.32h104.08c12.94,0,24.88,2.16,35.81,6.47,10.93,4.31,20.25,10.34,27.95,18.09,7.7,7.75,13.72,16.92,18.07,27.54,4.35,10.62,6.53,22.35,6.53,35.18,0,7.08-.84,14.1-2.51,21.07-1.67,6.97-4.07,13.55-7.2,19.75-3.13,6.2-6.81,11.78-11.04,16.76-4.24,4.98-9.04,9.13-14.39,12.44-1.79,1.33-2.96,2.93-3.51,4.81-.56,1.88-.17,3.71,1.17,5.48,8.48,11.06,17.4,22.46,26.77,34.18,9.37,11.73,17.74,22.46,25.1,32.19,1.34,1.77,1.67,3.71,1,5.81-.67,2.1-2.12,3.15-4.35,3.15h-62.25c-2.23,0-4.63-.61-7.2-1.83-2.57-1.21-4.52-2.71-5.86-4.48-7.11-9.29-14.16-18.69-21.15-28.21-7-9.51-13.94-19.13-20.82-28.87-1.33-1.77-3.22-3.26-5.66-4.48-2.44-1.21-4.77-1.83-6.99-1.83h-7.33c-2.22,0-4.11.78-5.66,2.32-1.56,1.55-2.33,3.43-2.33,5.64v53.76c0,2.21-.79,4.1-2.36,5.64-1.57,1.55-3.48,2.32-5.72,2.32ZM692.87,417.57h35.3c2.66,0,5.44-.5,8.33-1.49,2.89-1,5.55-2.54,7.99-4.65,2.44-2.1,4.44-4.7,6-7.8,1.55-3.1,2.33-6.75,2.33-10.95,0-2.21-.39-4.81-1.17-7.8-.78-2.99-2.11-5.86-4-8.63-1.89-2.76-4.44-5.09-7.66-6.97-3.22-1.88-7.16-2.82-11.82-2.82h-35.3c-2.22,0-4.11.78-5.66,2.32-1.56,1.55-2.33,3.43-2.33,5.64v35.18c0,2.21.77,4.1,2.33,5.64,1.55,1.55,3.44,2.32,5.66,2.32Z" fill="#8bba24"/>
  </g>
  <path d="M873.84,170.33h25.9c1.34,0,2.4.43,3.19,1.28.79.85,1.19,1.89,1.19,3.1v74.23c11.49-6.35,23.58-11.56,36.11-15.53v-58.69c0-1.21.42-2.25,1.28-3.1s1.88-1.28,3.1-1.28h25.53c1.34,0,2.4-.42,3.19-1.28.79-.85,1.19-1.88,1.19-3.1v-24.81c0-1.21-.4-2.25-1.19-3.1-.79-.85-1.86-1.28-3.19-1.28h-96.31c-1.22,0-2.25.43-3.1,1.28s-1.28,1.89-1.28,3.1v24.81c0,1.22.42,2.25,1.28,3.1.85.85,1.88,1.28,3.1,1.28Z" fill="#fff"/>
  <path d="M1070.69,486.63l-13.87,25.42-11.19,20.5-20.16-11.8-172.19-100.84c0,.46-.02.91-.02,1.37,0,89.05,72.19,161.23,161.23,161.23,50.07,0,94.79-22.84,124.36-58.66l-68.17-37.22Z" fill="#8bba24"/>
  <path d="M1007.12,385.51l13.5-24.81.05-.09.02-.03,11.34-20.55,20.12,11.96,53.23,31.18,70.35,38.47c0-.12,0-.24,0-.36,0-89.04-72.19-161.23-161.23-161.23-49.53,0-93.83,22.35-123.41,57.5l116.03,67.96Z" fill="#8bba24"/>
  <path d="M1140.73,587.36c-34.77,19.52-74.85,30.68-117.48,30.68H146.08c-46.41,0-84.17-37.76-84.17-84.17V149.99c0-46.41,37.76-84.17,84.17-84.17h1033.74c46.41,0,84.17,37.76,84.17,84.17v229.68c0,18-2,35.54-5.77,52.43l23.56,40.84c10.54-29.14,16.3-60.54,16.3-93.27v-229.68c0-65.22-53.06-118.27-118.27-118.27H146.08c-65.22,0-118.27,53.06-118.27,118.27v383.88c0,65.22,53.06,118.27,118.27,118.27h877.17c67.37,0,129.15-24.38,177.01-64.77l-59.52-.02Z" fill="#fff"/>
  <path d="M1025.5,179.54c2.98-3.1,6.47-5.59,10.49-7.48,4.01-1.88,8.27-2.83,12.77-2.83s8.75.94,12.77,2.83c4.01,1.89,7.54,4.38,10.58,7.48,3.04,3.1,5.41,6.75,7.11,10.94,1.7,4.19,2.55,8.54,2.55,13.04s-.85,9-2.55,13.13c-1.7,4.14-4.08,7.78-7.11,10.94-.99,1.03-2.05,1.97-3.14,2.86l33.75,16.05c3.88-4.86,7.12-10.25,9.7-16.17,3.65-8.39,5.47-17.33,5.47-26.81s-1.82-18.42-5.47-26.81c-3.65-8.39-8.6-15.71-14.86-21.98-6.26-6.26-13.59-11.22-21.98-14.87-8.39-3.65-17.33-5.47-26.81-5.47s-18.42,1.82-26.81,5.47c-8.39,3.65-15.69,8.6-21.89,14.87-6.2,6.26-11.13,13.59-14.77,21.98-3.65,8.39-5.47,17.33-5.47,26.81,0,7.44,1.14,14.54,3.38,21.3,5.89-.52,11.84-.79,17.82-.79,7.61,0,15.12.44,22.52,1.27-2.06-2.6-3.75-5.48-5.05-8.65-1.7-4.13-2.55-8.51-2.55-13.13s.85-8.85,2.55-13.04c1.7-4.19,4.04-7.84,7.02-10.94Z" fill="#fff"/>
</svg>